<svg xmlns="http://www.w3.org/2000/svg" version="1.1" xmlns:xlink="http://www.w3.org/1999/xlink" xmlns:svgjs="http://svgjs.dev/svgjs" width="2560" height="1600" preserveAspectRatio="none" viewBox="0 0 2560 1600"><g mask="url(&quot;#SvgjsMask1385&quot;)" fill="none"><rect width="2560" height="1600" x="0" y="0" fill="url(&quot;#SvgjsLinearGradient1386&quot;)"></rect><path d="M1102.8563829464115 108.46149812842853L848.65451601793-137.01839129940743 603.174626590094 117.18347562907408 857.3764935185756 362.66336505691004z" fill="rgba(28, 83, 142, 0.4)" class="triangle-float3"></path><path d="M223.83562414847358 76.01754240035831L-53.52075864001864 229.75869585821854 100.2203948178416 507.11507864671074 377.57677760633385 353.37392518885054z" fill="rgba(28, 83, 142, 0.4)" class="triangle-float1"></path><path d="M641.0892574735692 98.18244601351792L200.73214899446538 121.26058416040908 223.81028714135653 561.6176926395129 664.1673956204604 538.5395544926217z" fill="rgba(28, 83, 142, 0.4)" class="triangle-float2"></path><path d="M408.034,1674.068C530.741,1670.238,655.104,1635.779,721.014,1532.205C791.641,1421.22,793.719,1280.613,732.515,1164.166C666.651,1038.853,549.546,940.702,408.034,936.727C260.223,932.576,123.208,1016.324,50.368,1145.008C-21.426,1271.845,-22.346,1432.115,59.281,1552.858C133.158,1662.137,276.19,1678.183,408.034,1674.068" fill="rgba(28, 83, 142, 0.4)" class="triangle-float3"></path><path d="M1542.9108918571928 1132.237888097697L1187.8118528511945 823.5550028784954 879.1289676319931 1178.6540418844938 1234.2280066379913 1487.3369271036952z" fill="rgba(28, 83, 142, 0.4)" class="triangle-float1"></path><path d="M2170.164,1110.63C2264.356,1115.29,2351.643,1062.654,2400.751,982.142C2452.057,898.026,2462.425,793.962,2416.474,706.806C2367.351,613.633,2275.488,543.623,2170.164,544.784C2066.493,545.927,1976.908,618.175,1933.084,712.135C1894.929,793.941,1929.826,883.552,1975.978,961.127C2020.744,1036.372,2082.716,1106.303,2170.164,1110.63" fill="rgba(28, 83, 142, 0.4)" class="triangle-float2"></path><path d="M1158.3504630159782-15.82997081111884L861.7686230646407-117.9512879066203 759.6473059691393 178.63055204471718 1056.2291459204769 280.7518691402187z" fill="rgba(28, 83, 142, 0.4)" class="triangle-float3"></path><path d="M2073.3818240165638 455.6241996021705L2046.7049097722775 709.4380842363523 2440.764193845693 622.5465132856909z" fill="rgba(28, 83, 142, 0.4)" class="triangle-float1"></path><path d="M1357.45,217.628C1425.539,217.108,1486.124,173.316,1516.264,112.259C1543.425,57.236,1526.435,-6.207,1493.498,-57.98C1463.29,-105.464,1413.574,-133.221,1357.45,-137.381C1291.576,-142.263,1217.206,-136.579,1181.329,-81.116C1143.245,-22.24,1158.768,54.313,1194.379,114.717C1229.366,174.063,1288.561,218.154,1357.45,217.628" fill="rgba(28, 83, 142, 0.4)" class="triangle-float3"></path><path d="M1883.699,885.482C2033.625,889.731,2182.09,827.741,2260.158,699.674C2341.292,566.578,2342.334,397.512,2262.925,263.379C2184.928,131.631,2036.771,66.956,1883.699,63.782C1724.106,60.473,1553.615,107.458,1476.222,247.069C1400.473,383.715,1458.409,547.638,1542.467,679.336C1619.097,799.395,1741.326,881.447,1883.699,885.482" fill="rgba(28, 83, 142, 0.4)" class="triangle-float3"></path><path d="M116.01670833862835 739.1374221899404L280.2357908397083 333.79356399313156-99.22374903283998 380.38533697680066z" fill="rgba(28, 83, 142, 0.4)" class="triangle-float2"></path></g><defs><mask id="SvgjsMask1385"><rect width="2560" height="1600" fill="#ffffff"></rect></mask><linearGradient x1="9.37%" y1="-15%" x2="90.63%" y2="115%" gradientUnits="userSpaceOnUse" id="SvgjsLinearGradient1386"><stop stop-color="#0e2a47" offset="0"></stop><stop stop-color="rgba(0, 0, 0, 1)" offset="1"></stop></linearGradient><style>
                @keyframes float1 {
                    0%{transform: translate(0, 0)}
                    50%{transform: translate(-10px, 0)}
                    100%{transform: translate(0, 0)}
                }

                .triangle-float1 {
                    animation: float1 5s infinite;
                }

                @keyframes float2 {
                    0%{transform: translate(0, 0)}
                    50%{transform: translate(-5px, -5px)}
                    100%{transform: translate(0, 0)}
                }

                .triangle-float2 {
                    animation: float2 4s infinite;
                }

                @keyframes float3 {
                    0%{transform: translate(0, 0)}
                    50%{transform: translate(0, -10px)}
                    100%{transform: translate(0, 0)}
                }

                .triangle-float3 {
                    animation: float3 6s infinite;
                }
            </style></defs></svg>